<svg width="46" height="45" viewBox="0 0 46 45" fill="none" xmlns="http://www.w3.org/2000/svg">
<path d="M5.46795 43.9998H4.35113C4.25701 43.9699 4.16519 43.9355 4.06992 43.9125C2.80733 43.6118 1.88909 42.8795 1.34617 41.7006C1.21117 41.3567 1.0962 41.0052 1.00183 40.648V39.5311C1.02948 39.5003 1.05231 39.4655 1.06955 39.4278C1.51146 37.6498 2.7442 36.4709 4.38327 36.2723C6.1176 36.0646 7.58565 36.9117 8.45339 38.5956C8.49579 38.6596 8.55186 38.7134 8.61756 38.7531C8.68326 38.7928 8.75695 38.8174 8.83331 38.8252C9.76418 38.8447 10.6951 38.8401 11.6259 38.8309C11.7407 38.8309 11.9071 38.7885 11.9542 38.7093C12.4971 37.791 13.0217 36.86 13.5474 35.9383C13.5083 35.8977 13.4669 35.8594 13.4234 35.8235C11.672 34.5959 10.1612 33.0566 8.96646 31.2826C8.90341 31.2138 8.82681 31.1588 8.74147 31.1211C8.65613 31.0833 8.56391 31.0637 8.47061 31.0633C6.88204 31.0472 5.29233 31.0564 3.70262 31.0518C2.80159 31.0518 1.90056 31.0346 0.999537 31.0254V28.4473C1.09825 28.4565 1.19811 28.4749 1.29682 28.4749C3.22896 28.4749 5.16033 28.4749 7.09094 28.4749C7.16783 28.4729 7.24451 28.466 7.32051 28.4542C6.91074 26.7428 6.50442 25.0451 6.08432 23.2888H0.999537V20.7142H6.16466C6.3311 19.7901 6.44932 18.9246 6.65248 18.0741C6.85564 17.2235 7.14374 16.3959 7.40544 15.5247C6.83154 15.5247 6.27026 15.5247 5.71358 15.5247C4.14108 15.5323 2.56859 15.5419 0.996094 15.5534V12.981C1.16712 12.9718 1.34044 12.9534 1.50802 12.9534C3.81396 12.9534 6.11875 12.9534 8.42355 12.9592C8.5497 12.9708 8.67651 12.9455 8.78858 12.8864C8.90064 12.8273 8.99314 12.7369 9.05484 12.6263C9.87421 11.3816 10.8676 10.2606 12.0047 9.29748C12.5028 8.87392 13.0251 8.47791 13.5451 8.06123C13.0331 7.1659 12.5384 6.28089 12.0162 5.41196C11.9645 5.34515 11.8992 5.29012 11.8246 5.25054C11.7499 5.21095 11.6678 5.18772 11.5835 5.18238C10.71 5.15713 9.83764 5.18583 8.96416 5.16517C8.63933 5.15598 8.50504 5.27307 8.36386 5.55774C8.09137 6.12775 7.68335 6.62228 7.17548 6.99807C6.66762 7.37386 6.07541 7.61945 5.45066 7.71335C4.82591 7.80725 4.18767 7.74659 3.59179 7.53669C2.99591 7.32679 2.46055 6.97405 2.03256 6.50932C1.48506 5.9262 1.21992 5.21453 0.999537 4.47645V3.35728C1.02859 3.29273 1.05351 3.22641 1.07414 3.1587C1.46899 1.40705 2.77978 0.205238 4.4992 0.0215796C6.12793 -0.152896 7.66829 0.741292 8.41207 2.31731C8.51652 2.54 8.64163 2.59395 8.87119 2.5928C10.2612 2.58362 11.65 2.5928 13.0389 2.58247C13.1499 2.57122 13.2616 2.59536 13.3581 2.65143C13.4546 2.70751 13.5309 2.79265 13.576 2.89469C14.2464 4.09306 14.9339 5.28225 15.6168 6.47373C15.6788 6.58163 15.7511 6.68379 15.789 6.74233L19.1349 5.56807V0.0399455H21.722V5.19846H24.308V0.0399455H26.8711C26.8711 1.50577 26.8711 2.93716 26.8711 4.36855C26.8711 4.78063 26.7563 5.2811 26.9503 5.57955C27.1087 5.82519 27.639 5.8206 28.004 5.94916C28.7386 6.21202 29.4674 6.4898 30.2181 6.76759C30.9378 5.50494 31.6643 4.2618 32.3633 2.99914C32.539 2.68118 32.7364 2.57329 33.1014 2.58017C34.4041 2.60657 35.7069 2.58017 37.0097 2.59854C37.3437 2.60428 37.4975 2.50556 37.6444 2.19449C38.021 1.40517 38.6553 0.767758 39.4428 0.387358C40.2303 0.0069586 41.1239 -0.0937175 41.9762 0.10193C42.6187 0.246065 43.2139 0.551551 43.7055 0.989556C44.1972 1.42756 44.5692 1.98364 44.7863 2.6053C45.0034 3.22696 45.0586 3.8937 44.9465 4.54259C44.8345 5.19147 44.5589 5.80111 44.1459 6.31394C43.7329 6.82678 43.196 7.2259 42.5859 7.47364C41.9758 7.72138 41.3127 7.80956 40.659 7.72986C40.0054 7.65017 39.3829 7.40522 38.8502 7.01814C38.3175 6.63106 37.8923 6.11462 37.6146 5.51756C37.5216 5.32128 37.4619 5.15139 37.1692 5.15943C36.2395 5.18353 35.3075 5.15943 34.3766 5.17435C34.2618 5.17435 34.0954 5.21567 34.0483 5.29488C33.5054 6.21317 32.982 7.14524 32.4517 8.07271C32.5275 8.13699 32.5665 8.17717 32.6136 8.20931C34.3469 9.41381 35.8346 10.9378 36.997 12.6998C37.1531 12.9374 37.3414 12.9546 37.5767 12.9546C39.8677 12.9546 42.1587 12.9546 44.4497 12.9546H44.9731V15.5522H38.6843C39.0952 17.274 39.4981 18.9591 39.9193 20.7176H44.9697V23.3014H39.9193C39.497 25.0588 39.0883 26.7565 38.6717 28.4864H44.9766V31.0484H44.444C42.1484 31.0484 39.862 31.0541 37.5709 31.0484C37.4456 31.0383 37.3201 31.0645 37.2092 31.1237C37.0983 31.1829 37.0067 31.2727 36.9454 31.3824C35.8208 33.0652 34.3978 34.5279 32.7467 35.6984C32.6446 35.7707 32.5516 35.8545 32.4494 35.9383C32.9682 36.844 33.4629 37.7313 33.9863 38.6002C34.0385 38.667 34.1043 38.722 34.1793 38.7616C34.2542 38.8012 34.3367 38.8244 34.4214 38.8298C35.2661 38.8504 36.1121 38.8183 36.9557 38.8493C37.323 38.8631 37.4963 38.7506 37.6582 38.4131C38.0259 37.6526 38.6345 37.0349 39.3894 36.6558C40.1443 36.2768 41.0032 36.1577 41.8327 36.3171C42.6743 36.4722 43.4407 36.902 44.012 37.5391C44.5832 38.1763 44.9272 38.9848 44.9901 39.8383C45.0529 40.6917 44.8311 41.542 44.3593 42.2559C43.8874 42.9698 43.1923 43.5072 42.3825 43.784C42.1415 43.8666 41.8936 43.9297 41.6479 44.0021H40.5311C40.4967 43.9791 40.4646 43.9424 40.4267 43.9343C39.0814 43.6623 38.1437 42.8875 37.5503 41.6593C37.5022 41.5925 37.4399 41.5372 37.3678 41.4975C37.2958 41.4578 37.2158 41.4346 37.1336 41.4297C35.7471 41.4125 34.3594 41.4136 32.9728 41.4297C32.7134 41.4297 32.5562 41.3654 32.4322 41.1244C32.1831 40.6434 31.8985 40.1797 31.6287 39.709L30.2376 37.2779C29.2172 37.6222 28.2508 37.9666 27.2705 38.2604C26.9503 38.3569 26.8619 38.49 26.8642 38.8194C26.8814 40.5493 26.8642 42.2791 26.8642 44.0089H24.2885V38.8034H21.7106V43.9998H19.1349C19.1349 42.3124 19.1154 40.625 19.1349 38.9388C19.1418 38.5118 19.0453 38.319 18.6011 38.2168C17.9653 38.0699 17.35 37.8254 16.7325 37.6062C16.4157 37.4914 16.1127 37.3444 15.7925 37.2078C15.0487 38.5095 14.3164 39.7687 13.6116 41.0429C13.4498 41.3367 13.2673 41.4274 12.939 41.4228C11.6099 41.4033 10.2795 41.4228 8.95039 41.409C8.66229 41.409 8.50619 41.4722 8.37075 41.7626C7.84735 42.8944 6.94632 43.5934 5.73998 43.9045C5.6493 43.9286 5.55977 43.963 5.46795 43.9998ZM37.2415 22.3659C37.4917 14.5972 31.2729 8.02795 23.4162 7.76508C15.5939 7.50222 9.00778 13.7282 8.75871 21.6175C8.51193 29.4356 14.7376 35.9911 22.6472 36.2425C30.4304 36.4893 36.9867 30.2564 37.2415 22.3659ZM41.0958 5.1732C41.2675 5.17701 41.4381 5.14668 41.5979 5.08398C41.7577 5.02128 41.9035 4.92745 42.0267 4.80795C42.1499 4.68845 42.2482 4.54565 42.3158 4.38785C42.3834 4.23005 42.4189 4.0604 42.4204 3.88874C42.4176 3.54958 42.2839 3.22463 42.0471 2.98182C41.8103 2.73901 41.4888 2.59716 41.1498 2.58591C40.9799 2.58237 40.811 2.61232 40.6527 2.67406C40.4944 2.7358 40.3498 2.82812 40.2272 2.94574C40.1046 3.06336 40.0063 3.20398 39.938 3.35958C39.8698 3.51518 39.8328 3.6827 39.8292 3.85258C39.8257 4.02247 39.8557 4.19138 39.9174 4.34969C39.9791 4.508 40.0714 4.6526 40.1891 4.77523C40.3067 4.89786 40.4473 4.99612 40.6029 5.06441C40.7585 5.13269 40.926 5.16966 41.0958 5.1732ZM4.87568 38.8321C4.53623 38.8314 4.2101 38.9641 3.96751 39.2015C3.72492 39.439 3.58528 39.7622 3.57866 40.1016C3.57802 40.448 3.71393 40.7808 3.95694 41.0276C4.19994 41.2745 4.53045 41.4157 4.87683 41.4205C5.04846 41.4198 5.21824 41.3849 5.37626 41.3179C5.53428 41.2509 5.6774 41.1531 5.79726 41.0303C5.91712 40.9074 6.01133 40.7619 6.07441 40.6023C6.13749 40.4427 6.16817 40.2721 6.16466 40.1005C6.16331 39.9325 6.1289 39.7665 6.06339 39.6119C5.99788 39.4573 5.90256 39.3171 5.78286 39.1993C5.66317 39.0815 5.52145 38.9885 5.36579 38.9254C5.21014 38.8624 5.0436 38.8307 4.87568 38.8321ZM39.8321 40.1326C39.8348 40.472 39.9702 40.7968 40.2094 41.0375C40.4486 41.2782 40.7726 41.4157 41.1119 41.4205C41.4585 41.419 41.7904 41.2807 42.0355 41.0356C42.2806 40.7905 42.4189 40.4585 42.4204 40.1119C42.4165 39.7725 42.2795 39.4482 42.0388 39.2088C41.7982 38.9695 41.4731 38.8342 41.1337 38.8321C40.9621 38.8291 40.7916 38.8607 40.6324 38.925C40.4732 38.9893 40.3286 39.085 40.2072 39.2064C40.0857 39.3277 39.99 39.4722 39.9255 39.6314C39.8611 39.7905 39.8293 39.9609 39.8321 40.1326ZM4.86305 5.1732C5.20191 5.17904 5.52924 5.05023 5.77325 4.81503C6.01726 4.57983 6.15803 4.25744 6.16466 3.91858C6.1697 3.74706 6.14063 3.57624 6.07913 3.41604C6.01763 3.25584 5.92492 3.10945 5.8064 2.98537C5.68787 2.86129 5.54589 2.76198 5.38868 2.69321C5.23147 2.62444 5.06217 2.58758 4.8906 2.58476C4.54421 2.58596 4.21225 2.72363 3.96666 2.96793C3.72108 3.21224 3.58168 3.54349 3.57866 3.88989C3.58195 4.22942 3.71837 4.5541 3.95856 4.79409C4.19875 5.03408 4.52353 5.17021 4.86305 5.1732Z" fill="#9B1E26"/>
<path d="M19.6111 27.1525H17.0687V24.6215H14.4552V27.1399H11.8921C11.8841 27.0045 11.8715 26.8782 11.8715 26.7519C11.8715 24.7914 11.86 22.832 11.8715 20.8726C11.8841 18.8891 13.0721 17.3383 14.8615 16.9331C17.1824 16.4062 19.4309 17.9581 19.5801 20.3767C19.719 22.6127 19.6111 24.8603 19.6111 27.1525ZM17.0481 21.9872C17.0481 21.4959 17.0756 21.0528 17.0412 20.6097C17.0217 20.307 16.8959 20.0208 16.6858 19.802C16.4758 19.5831 16.1951 19.4455 15.8934 19.4136C15.2782 19.3551 14.6538 19.704 14.5378 20.2918C14.4299 20.837 14.4621 21.4098 14.4311 21.9826L17.0481 21.9872Z" fill="#9B1E26"/>
<path d="M24.2999 24.5813V27.1376H21.7392V16.9147C23.2944 16.9147 24.8543 16.7575 26.3671 16.9538C28.3643 17.2132 29.6464 19.1278 29.4398 21.1572C29.247 23.0466 27.593 24.5412 25.652 24.5802C25.2182 24.5894 24.79 24.5813 24.2999 24.5813ZM24.3194 19.4159V21.9975C24.7912 21.9975 25.2377 22.0181 25.675 21.9975C26.0002 21.9787 26.306 21.8363 26.5296 21.5994C26.7532 21.3626 26.8778 21.0491 26.8779 20.7233C26.8859 20.0599 26.4027 19.4791 25.7507 19.4286C25.2847 19.3918 24.8118 19.4205 24.3194 19.4205V19.4159Z" fill="#9B1E26"/>
<path d="M33.7119 27.1537H31.1868V16.8734H33.7119V27.1537Z" fill="#9B1E26"/>
</svg>
