<svg width="28" height="43" viewBox="0 0 28 43" fill="none" xmlns="http://www.w3.org/2000/svg">
<path fill-rule="evenodd" clip-rule="evenodd" d="M2.5 40.5V2.5H25.5V40.5H2.5ZM0 2C0 0.895432 0.895431 0 2 0H26C27.1046 0 28 0.895431 28 2V41C28 42.1046 27.1046 43 26 43H2C0.895431 43 0 42.1046 0 41V2ZM9 8H19V5.5H9V8ZM17.0095 16.8578L14 11L10.9905 16.8578L4.48944 17.9098L9.1306 22.5822L8.12215 29.0902L14 26.12L19.8779 29.0902L18.8694 22.5822L23.5106 17.9098L17.0095 16.8578ZM18.3075 19.6004L15.363 19.1239L14 16.4708L12.637 19.1239L9.69249 19.6004L11.7946 21.7166L11.3378 24.6642L14 23.3189L16.6622 24.6642L16.2055 21.7166L18.3075 19.6004ZM8 36C9.10457 36 10 35.1046 10 34C10 32.8954 9.10457 32 8 32C6.89543 32 6 32.8954 6 34C6 35.1046 6.89543 36 8 36ZM16 34C16 35.1046 15.1046 36 14 36C12.8954 36 12 35.1046 12 34C12 32.8954 12.8954 32 14 32C15.1046 32 16 32.8954 16 34ZM20 36C21.1046 36 22 35.1046 22 34C22 32.8954 21.1046 32 20 32C18.8954 32 18 32.8954 18 34C18 35.1046 18.8954 36 20 36Z" fill="#9B1E26"/>
</svg>
