<svg width="37" height="42" viewBox="0 0 37 42" fill="none" xmlns="http://www.w3.org/2000/svg">
<path d="M8.06041 17.7875C9.04775 18.7671 10.2231 19.5444 11.5183 20.0745C12.8134 20.6045 14.2028 20.8767 15.6058 20.8753H15.6391C18.4328 20.873 21.1124 19.7863 23.0947 17.8517C24.0873 16.9112 24.8782 15.7849 25.4209 14.5393C25.9636 13.2937 26.2471 11.9539 26.2547 10.5989C26.279 4.68532 21.6346 0.0290095 15.6955 3.35185e-05H15.6391C14.2401 -0.00344764 12.8541 0.264264 11.5604 0.787844C10.2668 1.31143 9.09094 2.08059 8.10015 3.05133C7.11356 4.00347 6.32916 5.13865 5.79244 6.39103C5.25573 7.6434 4.97738 8.98805 4.97355 10.347C4.96159 11.7262 5.22827 13.0941 5.75815 14.3713C6.28803 15.6485 7.07057 16.8097 8.06041 17.7875ZM10.0961 5.00657C10.8153 4.29741 11.6701 3.7349 12.6112 3.35136C13.5523 2.96782 14.5613 2.77081 15.5801 2.77165H15.5917C16.6222 2.76944 17.643 2.96704 18.5957 3.35314C19.5484 3.73924 20.4143 4.30625 21.1437 5.02169C21.8699 5.73255 22.4462 6.57735 22.8395 7.50764C23.2327 8.43792 23.4351 9.43536 23.4351 10.4427C23.4351 11.4501 23.2327 12.4475 22.8395 13.3778C22.4462 14.3081 21.8699 15.1529 21.1437 15.8637C20.4107 16.5813 19.5405 17.1495 18.5833 17.5354C17.6261 17.9213 16.6007 18.1175 15.566 18.1125H15.5391C11.2601 18.0999 7.7848 14.6367 7.79249 10.3936C7.79414 9.39044 7.99864 8.39763 8.3941 7.47284C8.78956 6.54805 9.3681 5.70972 10.0961 5.00657Z" fill="#9B1E26"/>
<path d="M25.624 27.3999C25.5624 27.3508 25.5073 27.308 25.4496 27.2677C22.4243 25.1826 19.1926 24.1345 15.8083 24.1345C14.7497 24.1369 13.6935 24.236 12.6535 24.4305C6.84131 25.5102 2.63277 28.8009 0.148415 34.2118C-0.123352 34.8039 -0.0207986 35.3532 0.447102 35.8004L0.513761 35.8634C1.02972 36.3747 1.57363 36.8579 2.14308 37.311C8.15143 41.9118 14.9353 43.1339 22.3051 40.9443C23.0675 40.7019 23.8156 40.418 24.5459 40.0939C24.851 39.9679 25.165 39.8331 25.483 39.7059L24.16 37.2404C20.2066 39.1566 15.9186 39.7059 11.7511 38.8278C8.46678 38.1362 5.2825 36.5173 3.23399 34.4978L3.16733 34.431L3.2122 34.3491C5.11585 30.8972 7.93863 28.6056 11.6024 27.536C15.9134 26.2762 20.063 26.9716 23.9408 29.5933L25.6291 27.405L25.624 27.3999Z" fill="#9B1E26"/>
<path d="M36.9997 31.6695H30.8606V25.6752H28.0327V31.7073H21.9308V34.4789H28.0712V40.463H30.8978V34.4411H36.9997V31.6695Z" fill="#9B1E26"/>
</svg>
